<mxfile host="app.diagrams.net" agent="Mozilla/5.0 (Windows NT 10.0; Win64; x64) AppleWebKit/537.36 (KHTML, like Gecko) Chrome/130.0.0.0 Safari/537.36" version="24.8.4">
  <diagram name="Page-1" id="351R5__L8oXT3Ko_EMz7">
    <mxGraphModel dx="2074" dy="1179" grid="1" gridSize="10" guides="1" tooltips="1" connect="1" arrows="1" fold="1" page="1" pageScale="1" pageWidth="827" pageHeight="1169" math="0" shadow="0">
      <root>
        <mxCell id="0" />
        <mxCell id="1" parent="0" />
        <mxCell id="sbUeCO4bcQ6q3r9ZoXH2-1" value="Корисник" style="shape=umlActor;verticalLabelPosition=bottom;verticalAlign=top;html=1;" vertex="1" parent="1">
          <mxGeometry x="140" y="230" width="30" height="60" as="geometry" />
        </mxCell>
        <mxCell id="sbUeCO4bcQ6q3r9ZoXH2-7" value="" style="rounded=0;whiteSpace=wrap;html=1;" vertex="1" parent="1">
          <mxGeometry x="254" y="60" width="320" height="410" as="geometry" />
        </mxCell>
        <mxCell id="sbUeCO4bcQ6q3r9ZoXH2-15" value="Извади ги сите податоци за последни 10 години" style="ellipse;whiteSpace=wrap;html=1;" vertex="1" parent="1">
          <mxGeometry x="344" y="130" width="140" height="70" as="geometry" />
        </mxCell>
        <mxCell id="sbUeCO4bcQ6q3r9ZoXH2-16" value="&lt;font style=&quot;font-size: 14px;&quot;&gt;Web app&lt;/font&gt;" style="text;html=1;align=center;verticalAlign=middle;whiteSpace=wrap;rounded=0;" vertex="1" parent="1">
          <mxGeometry x="384" y="70" width="60" height="30" as="geometry" />
        </mxCell>
        <mxCell id="sbUeCO4bcQ6q3r9ZoXH2-19" value="Извади податоци само за една шифра" style="ellipse;whiteSpace=wrap;html=1;" vertex="1" parent="1">
          <mxGeometry x="344" y="230" width="140" height="70" as="geometry" />
        </mxCell>
        <mxCell id="sbUeCO4bcQ6q3r9ZoXH2-20" value="Види препорака за купување за одредена шифра" style="ellipse;whiteSpace=wrap;html=1;" vertex="1" parent="1">
          <mxGeometry x="344" y="340" width="140" height="70" as="geometry" />
        </mxCell>
        <mxCell id="sbUeCO4bcQ6q3r9ZoXH2-21" value="" style="endArrow=none;html=1;rounded=0;" edge="1" parent="1" source="sbUeCO4bcQ6q3r9ZoXH2-1" target="sbUeCO4bcQ6q3r9ZoXH2-15">
          <mxGeometry width="50" height="50" relative="1" as="geometry">
            <mxPoint x="170" y="280" as="sourcePoint" />
            <mxPoint x="230.71067811865476" y="190" as="targetPoint" />
          </mxGeometry>
        </mxCell>
        <mxCell id="sbUeCO4bcQ6q3r9ZoXH2-22" value="" style="endArrow=none;html=1;rounded=0;entryX=0;entryY=0.5;entryDx=0;entryDy=0;" edge="1" parent="1" source="sbUeCO4bcQ6q3r9ZoXH2-1" target="sbUeCO4bcQ6q3r9ZoXH2-19">
          <mxGeometry width="50" height="50" relative="1" as="geometry">
            <mxPoint x="160" y="190" as="sourcePoint" />
            <mxPoint x="355" y="181" as="targetPoint" />
          </mxGeometry>
        </mxCell>
        <mxCell id="sbUeCO4bcQ6q3r9ZoXH2-23" value="" style="endArrow=none;html=1;rounded=0;entryX=0.015;entryY=0.363;entryDx=0;entryDy=0;entryPerimeter=0;" edge="1" parent="1" source="sbUeCO4bcQ6q3r9ZoXH2-1" target="sbUeCO4bcQ6q3r9ZoXH2-20">
          <mxGeometry width="50" height="50" relative="1" as="geometry">
            <mxPoint x="190" y="300" as="sourcePoint" />
            <mxPoint x="230" y="260" as="targetPoint" />
          </mxGeometry>
        </mxCell>
        <mxCell id="sbUeCO4bcQ6q3r9ZoXH2-25" value="" style="shape=umlLifeline;perimeter=lifelinePerimeter;whiteSpace=wrap;html=1;container=1;dropTarget=0;collapsible=0;recursiveResize=0;outlineConnect=0;portConstraint=eastwest;newEdgeStyle={&quot;curved&quot;:0,&quot;rounded&quot;:0};participant=umlActor;" vertex="1" parent="1">
          <mxGeometry x="140" y="500" width="20" height="560" as="geometry" />
        </mxCell>
        <mxCell id="sbUeCO4bcQ6q3r9ZoXH2-27" value="Web app" style="shape=umlLifeline;perimeter=lifelinePerimeter;whiteSpace=wrap;html=1;container=1;dropTarget=0;collapsible=0;recursiveResize=0;outlineConnect=0;portConstraint=eastwest;newEdgeStyle={&quot;curved&quot;:0,&quot;rounded&quot;:0};" vertex="1" parent="1">
          <mxGeometry x="290" y="500" width="100" height="560" as="geometry" />
        </mxCell>
        <mxCell id="sbUeCO4bcQ6q3r9ZoXH2-31" value="" style="html=1;points=[[0,0,0,0,5],[0,1,0,0,-5],[1,0,0,0,5],[1,1,0,0,-5]];perimeter=orthogonalPerimeter;outlineConnect=0;targetShapes=umlLifeline;portConstraint=eastwest;newEdgeStyle={&quot;curved&quot;:0,&quot;rounded&quot;:0};" vertex="1" parent="sbUeCO4bcQ6q3r9ZoXH2-27">
          <mxGeometry x="45" y="70" width="10" height="120" as="geometry" />
        </mxCell>
        <mxCell id="sbUeCO4bcQ6q3r9ZoXH2-63" value="" style="html=1;points=[[0,0,0,0,5],[0,1,0,0,-5],[1,0,0,0,5],[1,1,0,0,-5]];perimeter=orthogonalPerimeter;outlineConnect=0;targetShapes=umlLifeline;portConstraint=eastwest;newEdgeStyle={&quot;curved&quot;:0,&quot;rounded&quot;:0};" vertex="1" parent="sbUeCO4bcQ6q3r9ZoXH2-27">
          <mxGeometry x="45" y="250" width="10" height="280" as="geometry" />
        </mxCell>
        <mxCell id="sbUeCO4bcQ6q3r9ZoXH2-28" value="Data source" style="shape=umlLifeline;perimeter=lifelinePerimeter;whiteSpace=wrap;html=1;container=1;dropTarget=0;collapsible=0;recursiveResize=0;outlineConnect=0;portConstraint=eastwest;newEdgeStyle={&quot;curved&quot;:0,&quot;rounded&quot;:0};" vertex="1" parent="1">
          <mxGeometry x="520" y="500" width="100" height="560" as="geometry" />
        </mxCell>
        <mxCell id="sbUeCO4bcQ6q3r9ZoXH2-34" value="" style="html=1;points=[[0,0,0,0,5],[0,1,0,0,-5],[1,0,0,0,5],[1,1,0,0,-5]];perimeter=orthogonalPerimeter;outlineConnect=0;targetShapes=umlLifeline;portConstraint=eastwest;newEdgeStyle={&quot;curved&quot;:0,&quot;rounded&quot;:0};" vertex="1" parent="sbUeCO4bcQ6q3r9ZoXH2-28">
          <mxGeometry x="45" y="85" width="10" height="85" as="geometry" />
        </mxCell>
        <mxCell id="sbUeCO4bcQ6q3r9ZoXH2-65" value="" style="html=1;points=[[0,0,0,0,5],[0,1,0,0,-5],[1,0,0,0,5],[1,1,0,0,-5]];perimeter=orthogonalPerimeter;outlineConnect=0;targetShapes=umlLifeline;portConstraint=eastwest;newEdgeStyle={&quot;curved&quot;:0,&quot;rounded&quot;:0};" vertex="1" parent="sbUeCO4bcQ6q3r9ZoXH2-28">
          <mxGeometry x="45" y="270" width="10" height="160" as="geometry" />
        </mxCell>
        <mxCell id="sbUeCO4bcQ6q3r9ZoXH2-81" value="" style="html=1;points=[[0,0,0,0,5],[0,1,0,0,-5],[1,0,0,0,5],[1,1,0,0,-5]];perimeter=orthogonalPerimeter;outlineConnect=0;targetShapes=umlLifeline;portConstraint=eastwest;newEdgeStyle={&quot;curved&quot;:0,&quot;rounded&quot;:0};" vertex="1" parent="sbUeCO4bcQ6q3r9ZoXH2-28">
          <mxGeometry x="45" y="470" width="10" height="50" as="geometry" />
        </mxCell>
        <mxCell id="sbUeCO4bcQ6q3r9ZoXH2-30" value="Select &quot; Scrape All &quot;" style="html=1;verticalAlign=bottom;endArrow=block;curved=0;rounded=0;" edge="1" parent="1" target="sbUeCO4bcQ6q3r9ZoXH2-27">
          <mxGeometry width="80" relative="1" as="geometry">
            <mxPoint x="150" y="570" as="sourcePoint" />
            <mxPoint x="230" y="570" as="targetPoint" />
          </mxGeometry>
        </mxCell>
        <mxCell id="sbUeCO4bcQ6q3r9ZoXH2-33" value="Scrape Data for 10 Years" style="html=1;verticalAlign=bottom;endArrow=block;curved=0;rounded=0;" edge="1" parent="1" source="sbUeCO4bcQ6q3r9ZoXH2-31" target="sbUeCO4bcQ6q3r9ZoXH2-34">
          <mxGeometry width="80" relative="1" as="geometry">
            <mxPoint x="320" y="585" as="sourcePoint" />
            <mxPoint x="493.5" y="585" as="targetPoint" />
            <Array as="points">
              <mxPoint x="380" y="585" />
            </Array>
          </mxGeometry>
        </mxCell>
        <mxCell id="sbUeCO4bcQ6q3r9ZoXH2-35" value="Merge and Output Data" style="html=1;verticalAlign=bottom;endArrow=block;curved=0;rounded=0;" edge="1" parent="1" source="sbUeCO4bcQ6q3r9ZoXH2-31" target="sbUeCO4bcQ6q3r9ZoXH2-34">
          <mxGeometry width="80" relative="1" as="geometry">
            <mxPoint x="330" y="640" as="sourcePoint" />
            <mxPoint x="493.9999999999998" y="640" as="targetPoint" />
            <Array as="points">
              <mxPoint x="405" y="640" />
            </Array>
          </mxGeometry>
        </mxCell>
        <mxCell id="sbUeCO4bcQ6q3r9ZoXH2-36" value="Provide Data Result" style="html=1;verticalAlign=bottom;endArrow=open;dashed=1;endSize=8;curved=0;rounded=0;" edge="1" parent="1">
          <mxGeometry relative="1" as="geometry">
            <mxPoint x="564" y="670" as="sourcePoint" />
            <mxPoint x="344" y="670" as="targetPoint" />
          </mxGeometry>
        </mxCell>
        <mxCell id="sbUeCO4bcQ6q3r9ZoXH2-37" value="Receive Data Result File" style="html=1;verticalAlign=bottom;endArrow=open;dashed=1;endSize=8;curved=0;rounded=0;" edge="1" parent="1" source="sbUeCO4bcQ6q3r9ZoXH2-31" target="sbUeCO4bcQ6q3r9ZoXH2-25">
          <mxGeometry relative="1" as="geometry">
            <mxPoint x="320" y="690" as="sourcePoint" />
            <mxPoint x="240" y="690" as="targetPoint" />
            <Array as="points">
              <mxPoint x="250" y="690" />
            </Array>
          </mxGeometry>
        </mxCell>
        <mxCell id="sbUeCO4bcQ6q3r9ZoXH2-60" value="Select Option Value" style="html=1;verticalAlign=bottom;endArrow=block;curved=0;rounded=0;" edge="1" parent="1" source="sbUeCO4bcQ6q3r9ZoXH2-25" target="sbUeCO4bcQ6q3r9ZoXH2-63">
          <mxGeometry x="-0.0266" width="80" relative="1" as="geometry">
            <mxPoint x="150" y="720" as="sourcePoint" />
            <mxPoint x="230" y="720" as="targetPoint" />
            <Array as="points">
              <mxPoint x="150" y="750" />
              <mxPoint x="220" y="750" />
            </Array>
            <mxPoint as="offset" />
          </mxGeometry>
        </mxCell>
        <mxCell id="sbUeCO4bcQ6q3r9ZoXH2-64" value="Scrape Data for Selected Option" style="html=1;verticalAlign=bottom;endArrow=block;curved=0;rounded=0;" edge="1" parent="1" source="sbUeCO4bcQ6q3r9ZoXH2-63" target="sbUeCO4bcQ6q3r9ZoXH2-65">
          <mxGeometry width="80" relative="1" as="geometry">
            <mxPoint x="330" y="730" as="sourcePoint" />
            <mxPoint x="410" y="730" as="targetPoint" />
            <Array as="points">
              <mxPoint x="380" y="770" />
            </Array>
          </mxGeometry>
        </mxCell>
        <mxCell id="sbUeCO4bcQ6q3r9ZoXH2-66" value="IF" style="shape=umlFrame;whiteSpace=wrap;html=1;pointerEvents=0;width=60;height=30;" vertex="1" parent="1">
          <mxGeometry x="270" y="790" width="310" height="100" as="geometry" />
        </mxCell>
        <mxCell id="sbUeCO4bcQ6q3r9ZoXH2-68" value="" style="endArrow=none;dashed=1;html=1;dashPattern=1 3;strokeWidth=2;rounded=0;entryX=0.994;entryY=0.607;entryDx=0;entryDy=0;entryPerimeter=0;exitX=0.006;exitY=0.598;exitDx=0;exitDy=0;exitPerimeter=0;" edge="1" parent="1">
          <mxGeometry width="50" height="50" relative="1" as="geometry">
            <mxPoint x="271.8599999999999" y="839.9999999999998" as="sourcePoint" />
            <mxPoint x="578.1399999999999" y="840.9000000000001" as="targetPoint" />
          </mxGeometry>
        </mxCell>
        <mxCell id="sbUeCO4bcQ6q3r9ZoXH2-70" value="[No data]" style="text;html=1;align=center;verticalAlign=middle;resizable=0;points=[];autosize=1;strokeColor=none;fillColor=none;" vertex="1" parent="1">
          <mxGeometry x="270" y="840" width="70" height="30" as="geometry" />
        </mxCell>
        <mxCell id="sbUeCO4bcQ6q3r9ZoXH2-71" value="&lt;font style=&quot;font-size: 11px;&quot;&gt;[Data]&lt;/font&gt;" style="text;html=1;align=center;verticalAlign=bottom;resizable=0;points=[];autosize=1;strokeColor=none;fillColor=none;" vertex="1" parent="1">
          <mxGeometry x="280" y="810" width="50" height="30" as="geometry" />
        </mxCell>
        <mxCell id="sbUeCO4bcQ6q3r9ZoXH2-72" value="Scrape Missing Data for Selected Option" style="html=1;verticalAlign=bottom;endArrow=block;curved=0;rounded=0;" edge="1" parent="1" source="sbUeCO4bcQ6q3r9ZoXH2-63" target="sbUeCO4bcQ6q3r9ZoXH2-65">
          <mxGeometry width="80" relative="1" as="geometry">
            <mxPoint x="340" y="800" as="sourcePoint" />
            <mxPoint x="420" y="800" as="targetPoint" />
            <Array as="points">
              <mxPoint x="460" y="820" />
            </Array>
          </mxGeometry>
        </mxCell>
        <mxCell id="sbUeCO4bcQ6q3r9ZoXH2-73" value="Scrape Data for Selected Option" style="html=1;verticalAlign=bottom;endArrow=block;curved=0;rounded=0;" edge="1" parent="1" source="sbUeCO4bcQ6q3r9ZoXH2-63" target="sbUeCO4bcQ6q3r9ZoXH2-65">
          <mxGeometry width="80" relative="1" as="geometry">
            <mxPoint x="354" y="870" as="sourcePoint" />
            <mxPoint x="574" y="870" as="targetPoint" />
            <Array as="points">
              <mxPoint x="470" y="860" />
            </Array>
          </mxGeometry>
        </mxCell>
        <mxCell id="sbUeCO4bcQ6q3r9ZoXH2-75" value="Merge and Output Data" style="html=1;verticalAlign=bottom;endArrow=block;curved=0;rounded=0;" edge="1" parent="1" source="sbUeCO4bcQ6q3r9ZoXH2-63" target="sbUeCO4bcQ6q3r9ZoXH2-65">
          <mxGeometry width="80" relative="1" as="geometry">
            <mxPoint x="350" y="900" as="sourcePoint" />
            <mxPoint x="430" y="900" as="targetPoint" />
            <Array as="points">
              <mxPoint x="460" y="910" />
            </Array>
          </mxGeometry>
        </mxCell>
        <mxCell id="sbUeCO4bcQ6q3r9ZoXH2-77" value="Provide Data Result" style="html=1;verticalAlign=bottom;endArrow=open;dashed=1;endSize=8;curved=0;rounded=0;" edge="1" parent="1">
          <mxGeometry relative="1" as="geometry">
            <mxPoint x="564" y="930" as="sourcePoint" />
            <mxPoint x="344" y="930" as="targetPoint" />
          </mxGeometry>
        </mxCell>
        <mxCell id="sbUeCO4bcQ6q3r9ZoXH2-78" value="Receive Data Result File" style="html=1;verticalAlign=bottom;endArrow=open;dashed=1;endSize=8;curved=0;rounded=0;" edge="1" parent="1">
          <mxGeometry relative="1" as="geometry">
            <mxPoint x="335" y="950" as="sourcePoint" />
            <mxPoint x="150" y="950" as="targetPoint" />
            <Array as="points">
              <mxPoint x="250" y="950" />
            </Array>
          </mxGeometry>
        </mxCell>
        <mxCell id="sbUeCO4bcQ6q3r9ZoXH2-79" value="Receive Recommendation" style="html=1;verticalAlign=bottom;endArrow=open;dashed=1;endSize=8;curved=0;rounded=0;" edge="1" parent="1" source="sbUeCO4bcQ6q3r9ZoXH2-63" target="sbUeCO4bcQ6q3r9ZoXH2-25">
          <mxGeometry relative="1" as="geometry">
            <mxPoint x="330" y="1020" as="sourcePoint" />
            <mxPoint x="145" y="1020" as="targetPoint" />
            <Array as="points">
              <mxPoint x="250" y="1030" />
            </Array>
          </mxGeometry>
        </mxCell>
        <mxCell id="sbUeCO4bcQ6q3r9ZoXH2-80" value="Calculate Recommendation" style="html=1;verticalAlign=bottom;endArrow=block;curved=0;rounded=0;" edge="1" parent="1" source="sbUeCO4bcQ6q3r9ZoXH2-63" target="sbUeCO4bcQ6q3r9ZoXH2-81">
          <mxGeometry width="80" relative="1" as="geometry">
            <mxPoint x="384" y="970" as="sourcePoint" />
            <mxPoint x="490" y="970" as="targetPoint" />
            <Array as="points">
              <mxPoint x="460" y="970" />
            </Array>
          </mxGeometry>
        </mxCell>
        <mxCell id="sbUeCO4bcQ6q3r9ZoXH2-82" value="Provide &quot;Buy/Sell/Hold&quot;" style="html=1;verticalAlign=bottom;endArrow=open;dashed=1;endSize=8;curved=0;rounded=0;" edge="1" parent="1" source="sbUeCO4bcQ6q3r9ZoXH2-81" target="sbUeCO4bcQ6q3r9ZoXH2-63">
          <mxGeometry relative="1" as="geometry">
            <mxPoint x="604" y="1000" as="sourcePoint" />
            <mxPoint x="384" y="1000" as="targetPoint" />
            <Array as="points">
              <mxPoint x="450" y="1020" />
            </Array>
          </mxGeometry>
        </mxCell>
      </root>
    </mxGraphModel>
  </diagram>
</mxfile>
